PathFileType	4	(X/Y/Z)	C:\Users\Basilio\Documents\Thesis Gigler\squatting_fais\c3dfiles\040\SLS_pre_back2\markers_experimental.trc
DataRate	CameraRate	NumFrames	NumMarkers	Units	OrigDataRate	OrigDataStartFrame	OrigNumFrames
200.000000	200.000000	4	63	mm	200.000000	364	1459
Frame#	Time	FHD			LBHD			RBHD			C7			T10			CLAV			LSHO			LUUPA			LMUPA			LDUPA			LLEP			LMEP			LRAD			LUL			LRFIN			RSHO			RUPA1			RMUPA			RDUPA			RLEP			RMEP			RRAD			RUL			RUFIN			LASI			RASI			USACR			LSACR			RSACR			LTHI1			LTHI2			LTHI3			LTHI4			LLFC			LMFC			LTIB1			LTIB2			LTIB3			LTIB4			LLMAL			LMMAL			LHEE			LMT1			LMT2			LMT5			RTHI			RTHI2			RTHI3			RTHI4			RLFC			RMFC			RTIB1			RTIB2			RTIB3			RTIB4			RLMAL			RMMAL			RHEE			RMT1			RMT2			RMT5			*61			*62			
		X1	Y1	Z1	X2	Y2	Z2	X3	Y3	Z3	X4	Y4	Z4	X5	Y5	Z5	X6	Y6	Z6	X7	Y7	Z7	X8	Y8	Z8	X9	Y9	Z9	X10	Y10	Z10	X11	Y11	Z11	X12	Y12	Z12	X13	Y13	Z13	X14	Y14	Z14	X15	Y15	Z15	X16	Y16	Z16	X17	Y17	Z17	X18	Y18	Z18	X19	Y19	Z19	X20	Y20	Z20	X21	Y21	Z21	X22	Y22	Z22	X23	Y23	Z23	X24	Y24	Z24	X25	Y25	Z25	X26	Y26	Z26	X27	Y27	Z27	X28	Y28	Z28	X29	Y29	Z29	X30	Y30	Z30	X31	Y31	Z31	X32	Y32	Z32	X33	Y33	Z33	X34	Y34	Z34	X35	Y35	Z35	X36	Y36	Z36	X37	Y37	Z37	X38	Y38	Z38	X39	Y39	Z39	X40	Y40	Z40	X41	Y41	Z41	X42	Y42	Z42	X43	Y43	Z43	X44	Y44	Z44	X45	Y45	Z45	X46	Y46	Z46	X47	Y47	Z47	X48	Y48	Z48	X49	Y49	Z49	X50	Y50	Z50	X51	Y51	Z51	X52	Y52	Z52	X53	Y53	Z53	X54	Y54	Z54	X55	Y55	Z55	X56	Y56	Z56	X57	Y57	Z57	X58	Y58	Z58	X59	Y59	Z59	X60	Y60	Z60	X61	Y61	Z61	X62	Y62	Z62	X63	Y63	Z63	

365	1.82	-127.9430313110352	1774.059448242188	-1186.064208984375	-254.3229980468751	1723.75732421875	-1224.530639648438	-303.3808898925782	1684.5849609375	-1091.609252929688	-323.6015014648438	1567.079711914063	-1153.80322265625	-376.3174743652344	1255.188842773438	-1170.153930664063	-200.6414794921876	1490.666870117188	-1152.02392578125	-241.4555969238282	1552.117919921875	-1306.681396484375	-128.0964508056641	1445.060791015625	-1425.986206054688	-84.04170989990236	1449.72412109375	-1403.376220703125	-72.94232177734376	1409.922607421875	-1448.275268554688	-30.66241455078126	1364.471557617188	-1461.803588867188	-47.70634460449219	1315.455932617188	-1419.922485351563	247.7478485107422	1302.359252929688	-1402.484497070313	239.5409545898438	1296.69677734375	-1478.477172851563	337.9343872070313	1288.022216796875	-1419.131225585938	-252.5260467529297	1509.94775390625	-1003.065551757813	-140.1729888916016	1360.375732421875	-942.101257324219	-100.8634338378907	1374.104736328125	-966.204528808594	-83.30198669433595	1319.126098632813	-947.7690429687502	-28.74473190307618	1287.464965820313	-962.0452270507815	-62.67432403564455	1246.72314453125	-1015.472900390625	211.8882598876954	1262.838623046875	-1132.643432617188	226.7937622070313	1234.144653320313	-1062.625	303.9662780761719	1242.251831054688	-1147.394287109375	-219.7208404541016	1059.777709960938	-1275.668212890625	-222.7209472656251	1059.961181640625	-1047.973022460938	-400.3696289062501	1128.632202148438	-1164.045043945313	-411.8931579589845	1099.583984375	-1192.049438476563	-412.078094482422	1099.884887695313	-1135.010498046875	-317.9831848144532	803.797790527344	-1326.362670898438	-270.7624206542969	732.9096679687501	-1320.158813476563	-225.2398529052735	741.7133789062501	-1319.5458984375	-287.2443542480469	678.4845581054689	-1304.31396484375	-259.3515930175782	548.5750122070314	-1280.509399414063	-271.2221374511719	542.4871215820314	-1148.942016601563	-245.5996398925782	326.8623962402344	-1216.794921875	-318.7391662597657	293.3104858398438	-1254.894897460938	-276.6382751464844	282.3229064941407	-1240.416259765625	-278.3629150390626	207.3733215332032	-1196.504638671875	-352.3689270019532	125.2642364501953	-1205.770629882813	-323.2074279785157	142.6347045898438	-1123.458984375	-417.705535888672	97.27268981933597	-1157.75341796875	-204.233383178711	54.25032806396486	-1133.829833984375	-203.9662322998047	51.33861541748048	-1180.434814453125	-255.8046112060547	38.43161010742188	-1228.89208984375	-276.8600463867188	798.0127563476565	-977.3059082031252	-241.6291656494141	740.6925048828126	-977.8845825195315	-209.1262512207032	743.0811157226564	-981.952819824219	-269.8603820800782	663.1641845703126	-986.1482543945315	-278.9989013671876	556.5192871093751	-1000.870483398438	-272.9166259765626	549.5105590820314	-1128.403564453125	-414.1932983398439	438.125457763672	-1042.699462890625	-512.7918090820314	485.1136474609376	-1034.432373046875	-501.0940246582032	439.7004699707032	-1040.456420898438	-534.8079833984376	408.1396789550782	-1078.662353515625	-662.0540771484376	421.2674255371095	-1078.091918945313	-629.6737060546876	409.302459716797	-1160.543212890625	-706.2619018554689	474.2687377929689	-1144.537841796875	-664.4120483398439	256.6034545898438	-1153.221069335938	-673.9770507812501	256.8496093750001	-1114.116943359375	-720.5378417968751	289.1896057128907	-1072.74267578125	nan	nan	nan	nan	nan	nan	
366	1.825	-127.0037384033203	1774.227172851563	-1186.933227539063	-254.3375701904297	1723.84912109375	-1225.12255859375	-303.4579467773438	1684.78759765625	-1092.224853515625	-323.5695800781251	1567.091430664063	-1154.219360351563	-376.1535034179688	1255.3564453125	-1170.0625	-200.6400756835938	1490.73486328125	-1152.474975585938	-241.7510681152344	1552.01416015625	-1307.061889648438	-127.8776168823242	1445.260375976563	-1426.030517578125	-83.98001861572267	1449.9599609375	-1403.2626953125	-72.6772918701172	1410.188842773438	-1448.206665039063	-30.20857620239259	1364.799560546875	-1461.66943359375	-47.11594009399415	1315.421508789063	-1419.804565429688	248.1332550048829	1303.136596679688	-1401.317993164063	240.1530303955079	1297.980224609375	-1477.340454101563	338.8573608398438	1288.852294921875	-1417.662109375	-252.1424407958985	1510.45263671875	-1003.544555664063	-139.0672607421875	1361.1875	-942.5754394531252	-99.70803070068362	1375.785278320313	-966.7354125976565	-81.98336791992189	1320.459716796875	-948.155700683594	-27.46613121032716	1289.406494140625	-962.3497314453127	-61.19443130493165	1248.395874023438	-1015.533447265625	212.6581573486329	1264.962158203125	-1133.49609375	228.1167449951172	1236.903076171875	-1063.002075195313	305.3242797851563	1245.555786132813	-1148.583129882813	-219.8628082275391	1059.80078125	-1275.831909179688	-222.1546630859376	1059.7626953125	-1048.3076171875	-400.107879638672	1128.81640625	-1163.695678710938	-411.7558898925782	1099.7177734375	-1191.729248046875	-411.6964111328126	1100.063354492188	-1134.63427734375	-318.2779541015626	803.8355102539065	-1326.329711914063	-271.0787048339844	732.9208374023439	-1320.358520507813	-225.4959716796876	741.8699951171876	-1319.841918945313	-287.6167907714844	678.5502319335939	-1304.391479492188	-259.5644836425782	548.5666503906251	-1280.715576171875	-271.2453918457032	542.4697265625001	-1149.1376953125	-245.7635040283204	326.9137268066407	-1217.027465820313	-318.8979492187501	293.3471984863282	-1254.940307617188	-276.7674865722657	282.2858276367188	-1240.536987304688	-278.4333496093751	207.5725402832032	-1196.65673828125	-352.4274291992188	125.2681350708008	-1205.794311523438	-323.1653137207032	142.6879577636719	-1123.502685546875	-417.6912231445314	97.24858093261722	-1157.773315429688	-204.2221679687501	54.25721359252931	-1133.835571289063	-204.0181579589844	51.30283355712892	-1180.483520507813	-255.8084411621094	38.42277908325196	-1228.907592773438	-276.9273376464844	798.0567626953127	-977.2731933593752	-241.8734130859376	740.6304321289064	-977.813415527344	-209.4067993164063	742.9976806640626	-982.013366699219	-270.6991882324219	663.3483886718751	-985.9359130859377	-279.9756469726563	556.3509521484376	-1000.49462890625	-273.8077087402344	549.2608642578126	-1128.28662109375	-415.8831481933595	438.3797912597657	-1041.8525390625	-513.6751098632814	485.320770263672	-1034.40673828125	-502.2178955078126	440.0408325195314	-1040.377197265625	-536.5346679687501	408.3614196777345	-1078.178833007813	-663.3333740234376	421.8689575195314	-1077.981811523438	-630.7545166015626	409.5403137207032	-1160.484008789063	-706.9728393554689	474.6469116210939	-1144.656127929688	-665.9517822265626	257.2984619140626	-1153.131225585938	-675.2133789062501	257.1447753906251	-1114.016479492188	-721.8506469726564	289.6447753906251	-1072.750366210938	nan	nan	nan	nan	nan	nan	
367	1.83	-127.1654129028321	1774.335815429688	-1187.508422851563	-254.378646850586	1723.945434570313	-1225.809814453125	-303.6146545410157	1684.890625	-1092.873657226563	-323.5685729980469	1567.294311523438	-1154.61572265625	-375.7430114746094	1255.34130859375	-1169.931518554688	-200.5854797363282	1490.8408203125	-1152.984497070313	-241.8862609863282	1551.859008789063	-1307.479614257813	-127.6868362426758	1445.307006835938	-1426.036499023438	-83.88722991943361	1450.036376953125	-1403.169555664063	-72.33924102783205	1410.440551757813	-1448.036254882813	-29.90022087097169	1365.150146484375	-1461.476806640625	-46.59239578247071	1315.638427734375	-1419.675659179688	248.4496765136719	1304.497924804688	-1399.902465820313	240.9653472900391	1298.826171875	-1476.081176757813	339.2377014160157	1290.015258789063	-1415.813598632813	-251.6172485351563	1510.959838867188	-1003.878723144531	-137.7129669189453	1362.20556640625	-942.9685058593752	-98.79236602783206	1376.848754882813	-966.9877929687502	-81.07130432128908	1321.6064453125	-949.2553710937502	-25.54453277587891	1291.034301757813	-962.9617919921877	-58.83323287963869	1249.08056640625	-1016.261291503906	214.102035522461	1267.116333007813	-1134.186767578125	230.2650756835938	1239.779541015625	-1063.657836914063	306.7090454101563	1248.272094726563	-1149.396850585938	-220.0397644042969	1059.79638671875	-1276.013549804688	-221.4926452636719	1059.093505859375	-1048.265258789063	-399.864715576172	1129.049560546875	-1163.363525390625	-411.4881896972657	1099.76318359375	-1191.353393554688	-411.5024414062501	1100.200073242188	-1134.275756835938	-318.5485229492188	803.8921508789065	-1326.331176757813	-271.4302673339844	732.8841552734376	-1320.50830078125	-225.8661804199219	741.9503784179689	-1320.118774414063	-287.9840087890626	678.6286010742189	-1304.553100585938	-259.8649291992188	548.6016845703126	-1281.007202148438	-271.3334045410157	542.5260009765626	-1149.296752929688	-245.8877105712891	326.8178405761719	-1217.2900390625	-319.0123596191407	293.3666992187501	-1255.069458007813	-276.8074035644532	282.6655273437501	-1240.641235351563	-278.4933471679688	207.4967193603516	-1196.752319335938	-352.4594726562501	125.2389297485352	-1205.782958984375	-323.0887756347657	142.689208984375	-1123.608642578125	-417.6456909179689	97.28582763671878	-1157.774658203125	-204.2919464111329	54.33227920532228	-1133.902709960938	-203.9848937988282	51.19046020507814	-1180.507202148438	-255.6988525390626	38.31118392944337	-1228.915283203125	-277.0542907714844	798.0774536132815	-977.302673339844	-242.1582946777344	740.5499267578126	-977.818786621094	-209.8490753173829	742.8417968750001	-981.7930297851565	-271.4914245605469	663.4783325195314	-985.7960205078127	-280.9969482421876	556.4744262695314	-1000.305053710938	-274.5740661621094	549.1597900390626	-1128.0029296875	-416.6529846191407	438.5089111328126	-1041.640014648438	-515.2608032226564	485.312713623047	-1034.390869140625	-503.2276306152345	440.1273498535157	-1040.317260742188	-537.2286987304689	408.7088623046876	-1077.718017578125	-664.4840698242189	422.0184020996095	-1077.899658203125	-631.7636718750001	409.9046936035157	-1160.317138671875	-708.4496459960939	474.7595214843751	-1144.968383789063	-667.0232543945314	257.2569580078126	-1152.825561523438	-676.8164672851564	257.3508605957032	-1113.833129882813	-723.3663940429689	290.1683044433594	-1072.709594726563	nan	nan	nan	nan	nan	nan	
368	1.835	-128.1086883544922	1774.417846679688	-1187.842529296875	-254.3330078125001	1724.073974609375	-1226.4658203125	-303.8145446777344	1685.045654296875	-1093.695678710938	-323.4304199218751	1567.354614257813	-1154.89111328125	-375.5404357910157	1255.451538085938	-1169.755859375	-200.4266357421876	1490.85498046875	-1153.533203125	-242.0301971435547	1551.736083984375	-1307.838256835938	-127.5050506591797	1445.400512695313	-1426.009887695313	-83.70550537109376	1450.246215820313	-1403.03271484375	-71.95006561279298	1410.710693359375	-1447.835205078125	-29.03402709960938	1365.185424804688	-1461.097900390625	-46.1093864440918	1315.740966796875	-1419.523315429688	248.8468627929688	1305.371704101563	-1398.510498046875	241.161117553711	1300.006469726563	-1474.802368164063	339.4747314453126	1291.46240234375	-1414.404541015625	-251.3264923095704	1511.417602539063	-1004.284973144531	-136.5997772216797	1363.377563476563	-943.5983886718752	-97.46690368652347	1378.608764648438	-967.7933349609377	-79.16096496582033	1323.473266601563	-949.0562744140627	-24.33815574645997	1293.03369140625	-963.252624511719	-57.25774002075197	1250.704467773438	-1016.4833984375	215.3898468017579	1269.301635742188	-1134.923828125	231.2248229980469	1241.588256835938	-1064.381103515625	308.0357666015626	1250.998779296875	-1150.287353515625	-220.2093963623047	1059.82568359375	-1276.147338867188	-220.8892211914063	1059.715087890625	-1048.838012695313	-399.5733337402345	1129.104736328125	-1163.0185546875	-411.2395629882814	1099.890869140625	-1191.043212890625	-411.0460510253907	1100.275146484375	-1134.010620117188	-318.8647766113282	803.9304199218752	-1326.332397460938	-271.6980895996094	732.8920288085939	-1320.681518554688	-226.1605072021485	741.9655151367189	-1320.394653320313	-288.2398986816407	678.6642456054689	-1304.75439453125	-260.1227416992188	548.6395874023439	-1281.320922851563	-271.7029113769532	542.6444702148439	-1149.478271484375	-246.0852813720704	326.8629455566407	-1217.632568359375	-319.0914306640626	293.3628845214844	-1255.220703125	-276.9820861816407	282.7329406738282	-1241.047485351563	-278.6243896484376	207.8565063476563	-1196.9580078125	-352.5634155273438	125.2689743041992	-1205.782958984375	-323.0104064941407	142.7565002441407	-1123.641479492188	-417.6403808593751	97.22370910644534	-1157.797241210938	-204.2849273681641	54.27668380737306	-1133.919189453125	-204.0633697509766	51.28715896606447	-1180.637084960938	-255.8014221191407	38.23981094360352	-1228.9794921875	-277.1985473632813	798.0916748046877	-977.3098754882815	-242.3202667236329	740.5291137695314	-977.8245849609377	-210.2682495117188	742.9996337890626	-981.6622314453127	-272.0284729003907	663.3755493164064	-985.654479980469	-281.6913146972657	556.4476318359376	-1000.252624511719	-275.2512207031251	549.0680541992189	-1127.786376953125	-417.2659301757814	438.2948608398439	-1041.91552734375	-516.3781127929689	485.6420898437501	-1034.3642578125	-504.1679687500001	440.3851928710939	-1040.00732421875	-538.2132568359376	408.7983398437501	-1077.72021484375	-665.4671020507814	422.1627197265626	-1077.771850585938	-632.7851562500001	410.1106567382814	-1160.137939453125	-708.7286987304689	475.4190368652345	-1144.633422851563	-668.0558471679689	257.5085754394532	-1152.674438476563	-678.0504760742189	257.9378662109376	-1113.365234375	-724.7286376953126	290.3497619628907	-1072.651733398438	nan	nan	nan	nan	nan	nan	
